<?xml version="1.0" standalone="no"?><!DOCTYPE svg PUBLIC "-//W3C//DTD SVG 1.1//EN" "http://www.w3.org/Graphics/SVG/1.1/DTD/svg11.dtd"><svg t="1526267767764" class="icon" style="" viewBox="0 0 1024 1024" version="1.1" xmlns="http://www.w3.org/2000/svg" p-id="4901" xmlns:xlink="http://www.w3.org/1999/xlink" width="128" height="128"><defs><style type="text/css"></style></defs><path d="M916.637 226.501c-18.72-15.897-43.72-23.844-75.003-23.844l-666.223 0c-30.778 0-54.62 8.844-71.549 26.543-16.919 17.695-25.382 40.389-25.382 68.08l0 436.203c0 12.814 2.562 24.869 7.694 36.15 5.127 11.281 12.056 21.161 20.775 29.619 8.71 8.464 18.975 15.252 30.767 20.395 11.795 5.123 24.358 7.695 37.694 7.695l670.83 0c13.335 0 26.028-2.693 38.082-8.087 12.05-5.375 22.568-12.688 31.544-21.919 8.959-9.226 16.013-20 21.154-32.312 5.131-12.314 7.697-25.388 7.697-39.24L944.717 298.819C944.719 266.503 935.347 242.398 916.637 226.501zM628.142 443.909c5.382-4.353 11.92-6.537 19.613-6.537l156.172 0c7.695 0 14.363 2.173 20.002 6.537 5.645 4.362 8.464 10.128 8.464 17.306 0 7.182-2.819 13.335-8.464 18.468-5.638 5.132-12.306 7.694-20.002 7.694L647.755 487.377c-7.692 0-14.228-2.562-19.613-7.694-5.385-5.133-8.08-11.286-8.08-18.468C620.062 454.042 622.756 448.272 628.142 443.909zM258.11 395.451c3.846-8.97 9.096-16.667 15.767-23.079 6.67-6.413 14.366-11.416 23.085-15.005 8.719-3.59 17.951-5.386 27.694-5.386 21.541 0 39.229 6.8 53.08 20.39 13.844 13.582 20.772 30.899 20.772 51.928 0 10.255-1.923 19.75-5.767 28.469-3.85 8.715-8.981 16.408-15.387 23.079-6.42 6.667-14.109 11.927-23.085 15.772-8.976 3.849-18.845 5.77-29.612 5.77-9.742 0-18.974-1.923-27.694-5.77-8.726-3.847-16.419-9.106-23.085-15.772-6.67-6.671-11.922-14.363-15.767-23.079-3.854-8.725-5.772-18.215-5.772-28.469C252.337 414.043 254.261 404.428 258.11 395.451zM445.43 618.16l0 3.077 0 69.24L205.413 690.477l0-69.24 0-3.088c0-19.996 6.929-37.05 20.772-51.146 13.846-14.109 30.769-21.162 50.773-21.162l96.16 0c9.748 0 19.102 1.921 28.078 5.768 8.979 3.849 16.668 8.972 23.085 15.394 6.417 6.409 11.538 14.098 15.384 23.078C443.512 599.056 445.431 608.417 445.43 618.16L445.43 618.16zM546.205 539.689c4.615-5.137 12.055-7.696 22.308-7.696l235.413 0c10.256 0 17.56 2.559 21.922 7.696 4.364 5.132 6.543 11.544 6.543 19.234 0 7.175-2.307 13.327-6.925 18.46-4.612 5.134-12.049 7.692-22.304 7.692L567.755 585.075c-10.265 0-17.569-2.558-21.927-7.692-4.364-5.13-6.543-11.279-6.543-18.46C539.285 551.233 541.595 544.82 546.205 539.689zM825.085 676.627c-4.869 5.129-12.437 7.698-22.692 7.698L570.057 684.325c-9.744 0-17.178-2.568-22.31-7.698-5.138-5.12-7.694-11.277-7.694-18.46 0-7.185 2.556-13.463 7.694-18.845 5.132-5.392 12.826-8.087 23.085-8.087l229.251 0c10.249 0 18.205 2.693 23.854 8.087 5.638 5.383 8.463 11.661 8.463 18.845C832.401 665.341 829.961 671.494 825.085 676.627z" p-id="4902" fill="#ffffff"></path></svg>