<?xml version="1.0" standalone="no"?><!DOCTYPE svg PUBLIC "-//W3C//DTD SVG 1.1//EN" "http://www.w3.org/Graphics/SVG/1.1/DTD/svg11.dtd"><svg t="1525946872598" class="icon" style="" viewBox="0 0 1024 1024" version="1.1" xmlns="http://www.w3.org/2000/svg" p-id="3048" xmlns:xlink="http://www.w3.org/1999/xlink" width="128" height="128"><defs><style type="text/css"></style></defs><path d="M896 0 128 0C57.6 0 0 57.6 0 128l0 768c0 70.4 57.6 128 128 128l768 0c70.4 0 128-57.6 128-128L1024 128C1024 57.6 966.4 0 896 0zM704 192c38.4 0 64 25.6 64 64s-25.6 64-64 64-64-25.6-64-64S665.6 192 704 192zM768 768 512 768 128 768l320-384 192 230.4L716.8 512l204.8 256L768 768z" p-id="3049" fill="#ffffff"></path></svg>