<?xml version="1.0" standalone="no"?><!DOCTYPE svg PUBLIC "-//W3C//DTD SVG 1.1//EN" "http://www.w3.org/Graphics/SVG/1.1/DTD/svg11.dtd"><svg t="1525923592408" class="icon" style="" viewBox="0 0 1024 1024" version="1.1" xmlns="http://www.w3.org/2000/svg" p-id="2445" xmlns:xlink="http://www.w3.org/1999/xlink" width="128" height="128"><defs><style type="text/css"></style></defs><path d="M577 511V164c0-19.9-16.1-36-36-36H99c-19.9 0-36 16.1-36 36v860h897V547c0-19.9-16.1-36-36-36H577z m-72 441H356V769h-72v183H135V200h370v752z m383 0H577V583h311v369z" p-id="2446" fill="#ffffff"></path><path d="M189 254.8h72V369h-72zM379 254.8h72V369h-72zM189 447.8h72V562h-72zM379 447.8h72V562h-72zM605 639.8h72V754h-72zM795 639.8h72V754h-72z" p-id="2447" fill="#ffffff"></path></svg>