<?xml version="1.0" standalone="no"?><!DOCTYPE svg PUBLIC "-//W3C//DTD SVG 1.1//EN" "http://www.w3.org/Graphics/SVG/1.1/DTD/svg11.dtd"><svg t="1525945770390" class="icon" style="" viewBox="0 0 1024 1024" version="1.1" xmlns="http://www.w3.org/2000/svg" p-id="1482" xmlns:xlink="http://www.w3.org/1999/xlink" width="128" height="128"><defs><style type="text/css"></style></defs><path d="M255.9 320H512v64H255.9z" fill="#ffffff" p-id="1483"></path><path d="M895.6 640V128H640V64H320L128 256v384H64v192c0 70.7 57.3 128 128 128h640c70.7 0 128-57.3 128-128V640h-64.4z m-32-480v480h-95.2V160h95.2z m-128.7 0v480H640V160h94.9zM160 256h160V96h288v32h-0.3v512H160V256z m480 576H384v-64h256v64z" fill="#ffffff" p-id="1484"></path><path d="M255.3 448h256.1v64H255.3z" fill="#ffffff" p-id="1485"></path></svg>