<?xml version="1.0" standalone="no"?><!DOCTYPE svg PUBLIC "-//W3C//DTD SVG 1.1//EN" "http://www.w3.org/Graphics/SVG/1.1/DTD/svg11.dtd"><svg t="1525923742306" class="icon" style="" viewBox="0 0 1024 1024" version="1.1" xmlns="http://www.w3.org/2000/svg" p-id="4164" xmlns:xlink="http://www.w3.org/1999/xlink" width="128" height="128"><defs><style type="text/css"></style></defs><path d="M932.571429 841.142857q0 14.857143-10.857143 25.714286t-25.714286 10.857143H632q0.571429 9.714286 3.428571 50t2.857143 62q0 14.285714-10.285714 24.285714t-24.571429 10H420.571429q-14.285714 0-24.571429-10t-10.285714-24.285714q0-21.714286 2.857143-62t3.428571-50H128q-14.857143 0-25.714286-10.857143t-10.857143-25.714286 10.857143-25.714286l229.714286-230.285714H201.142857q-14.857143 0-25.714286-10.857143t-10.857142-25.714285 10.857142-25.714286l229.714286-230.285714H292.571429q-14.857143 0-25.714286-10.857143t-10.857143-25.714286 10.857143-25.714286L486.285714 10.857143q10.857143-10.857143 25.714286-10.857143t25.714286 10.857143l219.428571 219.428571q10.857143 10.857143 10.857143 25.714286t-10.857143 25.714286-25.714286 10.857143H618.857143l229.714286 230.285714q10.857143 10.857143 10.857142 25.714286t-10.857142 25.714285-25.714286 10.857143h-130.857143l229.714286 230.285714q10.857143 10.857143 10.857143 25.714286z" p-id="4165" fill="#ffffff"></path></svg>